<svg width="16" height="16" viewBox="0 0 16 16" fill="none" xmlns="http://www.w3.org/2000/svg">
<g clip-path="url(#clip0)">
<path fill-rule="evenodd" clip-rule="evenodd" d="M11.5001 14.9999C11.6328 14.9999 11.7599 14.9472 11.8537 14.8535C11.9475 14.7597 12.0001 14.6325 12.0001 14.4999V2.70692L15.1461 5.85392C15.24 5.9478 15.3674 6.00055 15.5001 6.00055C15.6329 6.00055 15.7603 5.9478 15.8541 5.85392C15.948 5.76003 16.0008 5.63269 16.0008 5.49992C16.0008 5.36714 15.948 5.2398 15.8541 5.14592L11.8541 1.14592C11.8077 1.09935 11.7525 1.06241 11.6918 1.0372C11.631 1.012 11.5659 0.999023 11.5001 0.999023C11.4344 0.999023 11.3693 1.012 11.3085 1.0372C11.2478 1.06241 11.1926 1.09935 11.1461 1.14592L7.14614 5.14592C7.05226 5.2398 6.99951 5.36714 6.99951 5.49992C6.99951 5.63269 7.05226 5.76003 7.14614 5.85392C7.24003 5.9478 7.36737 6.00055 7.50014 6.00055C7.63292 6.00055 7.76026 5.9478 7.85414 5.85392L11.0001 2.70692V14.4999C11.0001 14.6325 11.0528 14.7597 11.1466 14.8535C11.2404 14.9472 11.3675 14.9999 11.5001 14.9999ZM4.50014 0.999917C4.63275 0.999917 4.75993 1.0526 4.8537 1.14636C4.94746 1.24013 5.00014 1.36731 5.00014 1.49992V13.2929L8.14614 10.1459C8.24003 10.052 8.36737 9.99929 8.50014 9.99929C8.63292 9.99929 8.76026 10.052 8.85414 10.1459C8.94803 10.2398 9.00077 10.3671 9.00077 10.4999C9.00077 10.6327 8.94803 10.76 8.85414 10.8539L4.85414 14.8539C4.8077 14.9005 4.75252 14.9374 4.69178 14.9626C4.63103 14.9878 4.56591 15.0008 4.50014 15.0008C4.43438 15.0008 4.36926 14.9878 4.30851 14.9626C4.24776 14.9374 4.19259 14.9005 4.14614 14.8539L0.146143 10.8539C0.0522567 10.76 -0.000488284 10.6327 -0.000488281 10.4999C-0.000488278 10.3671 0.0522567 10.2398 0.146143 10.1459C0.24003 10.052 0.367368 9.99929 0.500143 9.99929C0.632919 9.99929 0.760257 10.052 0.854143 10.1459L4.00014 13.2929V1.49992C4.00014 1.36731 4.05282 1.24013 4.14659 1.14636C4.24036 1.0526 4.36754 0.999917 4.50014 0.999917Z" fill="#6C757D"/>
</g>
<defs>
<clipPath id="clip0">
<rect width="16" height="16" fill="white"/>
</clipPath>
</defs>
</svg>
