<svg width="10" height="10" viewBox="0 0 10 10" fill="none" xmlns="http://www.w3.org/2000/svg">
<g clip-path="url(#clip0)">
<path fill-rule="evenodd" clip-rule="evenodd" d="M5 9.375C6.16032 9.375 7.27312 8.91406 8.09359 8.09359C8.91406 7.27312 9.375 6.16032 9.375 5C9.375 3.83968 8.91406 2.72688 8.09359 1.90641C7.27312 1.08594 6.16032 0.625 5 0.625C3.83968 0.625 2.72688 1.08594 1.90641 1.90641C1.08594 2.72688 0.625 3.83968 0.625 5C0.625 6.16032 1.08594 7.27312 1.90641 8.09359C2.72688 8.91406 3.83968 9.375 5 9.375ZM5 10C6.32608 10 7.59785 9.47322 8.53553 8.53553C9.47322 7.59785 10 6.32608 10 5C10 3.67392 9.47322 2.40215 8.53553 1.46447C7.59785 0.526784 6.32608 0 5 0C3.67392 0 2.40215 0.526784 1.46447 1.46447C0.526784 2.40215 0 3.67392 0 5C0 6.32608 0.526784 7.59785 1.46447 8.53553C2.40215 9.47322 3.67392 10 5 10Z" fill="#6C757D"/>
<path d="M4.37622 6.87507C4.37622 6.793 4.39239 6.71173 4.4238 6.6359C4.45521 6.56007 4.50124 6.49117 4.55928 6.43313C4.61732 6.3751 4.68622 6.32906 4.76204 6.29765C4.83787 6.26624 4.91914 6.25007 5.00122 6.25007C5.0833 6.25007 5.16457 6.26624 5.2404 6.29765C5.31623 6.32906 5.38513 6.3751 5.44316 6.43313C5.5012 6.49117 5.54724 6.56007 5.57865 6.6359C5.61005 6.71173 5.62622 6.793 5.62622 6.87507C5.62622 7.04083 5.56037 7.19981 5.44316 7.31702C5.32595 7.43423 5.16698 7.50007 5.00122 7.50007C4.83546 7.50007 4.67649 7.43423 4.55928 7.31702C4.44207 7.19981 4.37622 7.04083 4.37622 6.87507ZM4.43747 3.12195C4.42915 3.0431 4.4375 2.96338 4.46197 2.88797C4.48645 2.81255 4.5265 2.74312 4.57954 2.68419C4.63259 2.62526 4.69742 2.57813 4.76985 2.54587C4.84228 2.51362 4.92068 2.49695 4.99997 2.49695C5.07926 2.49695 5.15766 2.51362 5.23009 2.54587C5.30252 2.57813 5.36736 2.62526 5.4204 2.68419C5.47344 2.74312 5.51349 2.81255 5.53797 2.88797C5.56245 2.96338 5.57079 3.0431 5.56247 3.12195L5.34372 5.31382C5.33637 5.39993 5.29697 5.48014 5.23332 5.5386C5.16966 5.59705 5.08639 5.62948 4.99997 5.62948C4.91355 5.62948 4.83028 5.59705 4.76662 5.5386C4.70297 5.48014 4.66357 5.39993 4.65622 5.31382L4.43747 3.12195Z" fill="#6C757D"/>
</g>
<defs>
<clipPath id="clip0">
<rect width="10" height="10" fill="white"/>
</clipPath>
</defs>
</svg>
