<svg width="51" height="51" viewBox="0 0 51 51" fill="none" xmlns="http://www.w3.org/2000/svg">
<path d="M12.75 0H30.2812V3.1875H12.75C11.9046 3.1875 11.0939 3.52332 10.4961 4.1211C9.89832 4.71887 9.5625 5.52962 9.5625 6.375V44.625C9.5625 45.4704 9.89832 46.2811 10.4961 46.8789C11.0939 47.4767 11.9046 47.8125 12.75 47.8125H38.25C39.0954 47.8125 39.9061 47.4767 40.5039 46.8789C41.1017 46.2811 41.4375 45.4704 41.4375 44.625V14.3438H44.625V44.625C44.625 46.3158 43.9534 47.9373 42.7578 49.1328C41.5623 50.3284 39.9408 51 38.25 51H12.75C11.0592 51 9.43774 50.3284 8.24219 49.1328C7.04665 47.9373 6.375 46.3158 6.375 44.625V6.375C6.375 4.68424 7.04665 3.06274 8.24219 1.86719C9.43774 0.67165 11.0592 0 12.75 0V0Z" fill="#FD7E14"/>
<path d="M30.2812 9.5625V0L44.625 14.3438H35.0625C33.7944 14.3438 32.5783 13.84 31.6816 12.9434C30.785 12.0467 30.2813 10.8306 30.2812 9.5625Z" fill="#FD7E14"/>
<path fill-rule="evenodd" clip-rule="evenodd" d="M15.9375 36.6562C15.9375 36.2336 16.1054 35.8282 16.4043 35.5293C16.7032 35.2304 17.1086 35.0625 17.5312 35.0625H23.9062C24.3289 35.0625 24.7343 35.2304 25.0332 35.5293C25.3321 35.8282 25.5 36.2336 25.5 36.6562C25.5 37.0789 25.3321 37.4843 25.0332 37.7832C24.7343 38.0821 24.3289 38.25 23.9062 38.25H17.5312C17.1086 38.25 16.7032 38.0821 16.4043 37.7832C16.1054 37.4843 15.9375 37.0789 15.9375 36.6562ZM15.9375 30.2812C15.9375 29.8586 16.1054 29.4532 16.4043 29.1543C16.7032 28.8554 17.1086 28.6875 17.5312 28.6875H33.4688C33.8914 28.6875 34.2968 28.8554 34.5957 29.1543C34.8946 29.4532 35.0625 29.8586 35.0625 30.2812C35.0625 30.7039 34.8946 31.1093 34.5957 31.4082C34.2968 31.7071 33.8914 31.875 33.4688 31.875H17.5312C17.1086 31.875 16.7032 31.7071 16.4043 31.4082C16.1054 31.1093 15.9375 30.7039 15.9375 30.2812ZM15.9375 23.9062C15.9375 23.4836 16.1054 23.0782 16.4043 22.7793C16.7032 22.4804 17.1086 22.3125 17.5312 22.3125H33.4688C33.8914 22.3125 34.2968 22.4804 34.5957 22.7793C34.8946 23.0782 35.0625 23.4836 35.0625 23.9062C35.0625 24.3289 34.8946 24.7343 34.5957 25.0332C34.2968 25.3321 33.8914 25.5 33.4688 25.5H17.5312C17.1086 25.5 16.7032 25.3321 16.4043 25.0332C16.1054 24.7343 15.9375 24.3289 15.9375 23.9062Z" fill="#FD7E14"/>
</svg>
