<svg width="32" height="32" viewBox="0 0 32 32" fill="none" xmlns="http://www.w3.org/2000/svg">
<path fill-rule="evenodd" clip-rule="evenodd" d="M5 23C5 22.7348 5.10536 22.4804 5.29289 22.2929C5.48043 22.1054 5.73478 22 6 22H26C26.2652 22 26.5196 22.1054 26.7071 22.2929C26.8946 22.4804 27 22.7348 27 23C27 23.2652 26.8946 23.5196 26.7071 23.7071C26.5196 23.8946 26.2652 24 26 24H6C5.73478 24 5.48043 23.8946 5.29289 23.7071C5.10536 23.5196 5 23.2652 5 23ZM5 15C5 14.7348 5.10536 14.4804 5.29289 14.2929C5.48043 14.1054 5.73478 14 6 14H26C26.2652 14 26.5196 14.1054 26.7071 14.2929C26.8946 14.4804 27 14.7348 27 15C27 15.2652 26.8946 15.5196 26.7071 15.7071C26.5196 15.8946 26.2652 16 26 16H6C5.73478 16 5.48043 15.8946 5.29289 15.7071C5.10536 15.5196 5 15.2652 5 15ZM5 7C5 6.73478 5.10536 6.48043 5.29289 6.29289C5.48043 6.10536 5.73478 6 6 6H26C26.2652 6 26.5196 6.10536 26.7071 6.29289C26.8946 6.48043 27 6.73478 27 7C27 7.26522 26.8946 7.51957 26.7071 7.70711C26.5196 7.89464 26.2652 8 26 8H6C5.73478 8 5.48043 7.89464 5.29289 7.70711C5.10536 7.51957 5 7.26522 5 7Z" fill="white"/>
</svg>
