<svg width="18" height="18" viewBox="0 0 18 18" fill="none" xmlns="http://www.w3.org/2000/svg">
<path d="M17.4394 2.18245C17.5445 2.28789 17.6036 2.4307 17.6036 2.57958C17.6036 2.72846 17.5445 2.87127 17.4394 2.9767L16.2661 4.1512L14.0161 1.9012L15.1894 0.726704C15.2949 0.621252 15.438 0.562012 15.5871 0.562012C15.7363 0.562012 15.8793 0.621252 15.9848 0.726704L17.4394 2.18133V2.18245ZM15.4707 4.94545L13.2207 2.69545L5.55606 10.3612C5.49414 10.4231 5.44753 10.4986 5.41993 10.5817L4.51431 13.2975C4.49788 13.347 4.49555 13.4001 4.50757 13.4508C4.51959 13.5016 4.54549 13.548 4.58238 13.5849C4.61926 13.6218 4.66568 13.6477 4.71644 13.6597C4.76719 13.6717 4.8203 13.6694 4.86981 13.653L7.58556 12.7473C7.66854 12.7201 7.74403 12.6738 7.80606 12.6123L15.4707 4.94658V4.94545Z" fill="#6C757D"/>
<path fill-rule="evenodd" clip-rule="evenodd" d="M1 15.0625C1 15.5101 1.17779 15.9393 1.49426 16.2557C1.81072 16.5722 2.23995 16.75 2.6875 16.75H15.0625C15.5101 16.75 15.9393 16.5722 16.2557 16.2557C16.5722 15.9393 16.75 15.5101 16.75 15.0625V8.3125C16.75 8.16332 16.6907 8.02024 16.5852 7.91475C16.4798 7.80926 16.3367 7.75 16.1875 7.75C16.0383 7.75 15.8952 7.80926 15.7898 7.91475C15.6843 8.02024 15.625 8.16332 15.625 8.3125V15.0625C15.625 15.2117 15.5657 15.3548 15.4602 15.4602C15.3548 15.5657 15.2117 15.625 15.0625 15.625H2.6875C2.53832 15.625 2.39524 15.5657 2.28975 15.4602C2.18426 15.3548 2.125 15.2117 2.125 15.0625V2.6875C2.125 2.53832 2.18426 2.39524 2.28975 2.28975C2.39524 2.18426 2.53832 2.125 2.6875 2.125H10C10.1492 2.125 10.2923 2.06574 10.3977 1.96025C10.5032 1.85476 10.5625 1.71168 10.5625 1.5625C10.5625 1.41332 10.5032 1.27024 10.3977 1.16475C10.2923 1.05926 10.1492 1 10 1H2.6875C2.23995 1 1.81072 1.17779 1.49426 1.49426C1.17779 1.81072 1 2.23995 1 2.6875V15.0625Z" fill="#6C757D"/>
</svg>
