<svg width="52" height="51" viewBox="0 0 52 51" fill="none" xmlns="http://www.w3.org/2000/svg">
<g clip-path="url(#clip0)">
<path fill-rule="evenodd" clip-rule="evenodd" d="M47.8779 44.625C47.8779 44.625 51.0654 44.625 51.0654 41.4375C51.0654 38.25 47.8779 28.6875 35.1279 28.6875C22.3779 28.6875 19.1904 38.25 19.1904 41.4375C19.1904 44.625 22.3779 44.625 22.3779 44.625H47.8779ZM22.4481 41.4375H47.8078C47.8227 41.4358 47.8376 41.4336 47.8524 41.4311L47.8779 41.4248C47.8716 40.5833 47.3456 38.1416 45.4554 35.9422C43.6959 33.8799 40.6041 31.875 35.1279 31.875C29.655 31.875 26.5631 33.8831 24.8004 35.9422C22.9102 38.1416 22.3811 40.5864 22.3779 41.4248C22.4013 41.4292 22.4246 41.4335 22.4481 41.4375ZM35.1279 22.3125C36.8187 22.3125 38.4402 21.6409 39.6357 20.4453C40.8313 19.2498 41.5029 17.6283 41.5029 15.9375C41.5029 14.2467 40.8313 12.6252 39.6357 11.4297C38.4402 10.2341 36.8187 9.5625 35.1279 9.5625C33.4372 9.5625 31.8157 10.2341 30.6201 11.4297C29.4246 12.6252 28.7529 14.2467 28.7529 15.9375C28.7529 17.6283 29.4246 19.2498 30.6201 20.4453C31.8157 21.6409 33.4372 22.3125 35.1279 22.3125ZM44.6904 15.9375C44.6904 17.1933 44.4431 18.4367 43.9625 19.5969C43.482 20.7571 42.7776 21.8112 41.8896 22.6992C41.0017 23.5872 39.9475 24.2915 38.7873 24.7721C37.6272 25.2527 36.3837 25.5 35.1279 25.5C33.8722 25.5 32.6287 25.2527 31.4685 24.7721C30.3083 24.2915 29.2542 23.5872 28.3662 22.6992C27.4783 21.8112 26.7739 20.7571 26.2933 19.5969C25.8128 18.4367 25.5654 17.1933 25.5654 15.9375C25.5654 13.4014 26.5729 10.9691 28.3662 9.17579C30.1595 7.38248 32.5918 6.375 35.1279 6.375C37.6641 6.375 40.0963 7.38248 41.8896 9.17579C43.683 10.9691 44.6904 13.4014 44.6904 15.9375ZM22.1739 29.58C20.8989 29.1785 19.5845 28.9146 18.2533 28.7927C17.5053 28.7216 16.7543 28.6865 16.0029 28.6875C3.25293 28.6875 0.0654297 38.25 0.0654297 41.4375C0.0654297 43.5636 1.12687 44.625 3.25293 44.625H16.6914C16.2189 43.6299 15.9832 42.5389 16.0029 41.4375C16.0029 38.2181 17.2046 34.9286 19.4773 32.181C20.2519 31.2439 21.1539 30.3673 22.1739 29.58ZM15.7479 31.875C10.4312 31.9387 7.41262 33.915 5.67543 35.9422C3.77249 38.1544 3.25293 40.6056 3.25293 41.4375H12.8154C12.8154 38.1066 13.845 34.7884 15.7479 31.875ZM4.84668 17.5312C4.84668 14.9951 5.85415 12.5629 7.64747 10.7695C9.44079 8.97623 11.873 7.96875 14.4092 7.96875C16.9453 7.96875 19.3776 8.97623 21.1709 10.7695C22.9642 12.5629 23.9717 14.9951 23.9717 17.5312C23.9717 20.0674 22.9642 22.4996 21.1709 24.293C19.3776 26.0863 16.9453 27.0938 14.4092 27.0938C11.873 27.0938 9.44079 26.0863 7.64747 24.293C5.85415 22.4996 4.84668 20.0674 4.84668 17.5312ZM14.4092 11.1562C12.7184 11.1562 11.0969 11.8279 9.90137 13.0234C8.70583 14.219 8.03418 15.8405 8.03418 17.5312C8.03418 19.222 8.70583 20.8435 9.90137 22.0391C11.0969 23.2346 12.7184 23.9062 14.4092 23.9062C16.0999 23.9062 17.7214 23.2346 18.917 22.0391C20.1125 20.8435 20.7842 19.222 20.7842 17.5312C20.7842 15.8405 20.1125 14.219 18.917 13.0234C17.7214 11.8279 16.0999 11.1562 14.4092 11.1562Z" fill="#6610F2"/>
</g>
<defs>
<clipPath id="clip0">
<rect width="51" height="51" fill="white" transform="translate(0.0654297)"/>
</clipPath>
</defs>
</svg>
