<svg width="60" height="60" viewBox="0 0 60 60" fill="none" xmlns="http://www.w3.org/2000/svg">
<path d="M2.70739 39.4298L2.70417 39.4882C2.48631 43.4461 4.62393 47.1538 8.15151 48.9314L8.18769 48.9497C9.43135 49.5667 10.4507 50.5839 11.0938 51.8487L11.1083 51.8762C12.8858 55.3864 16.5621 57.5141 20.4812 57.3007L20.5407 57.2974C21.962 57.2148 23.3729 57.595 24.5755 58.3854C27.8941 60.5382 32.1066 60.5382 35.4252 58.3854C36.6278 57.595 38.0387 57.2148 39.46 57.2974L39.5195 57.3007C43.4322 57.5158 47.1133 55.3864 48.8948 51.8704L48.9036 51.8512C49.5492 50.5831 50.571 49.5642 51.8186 48.9464L51.8476 48.9314C55.3752 47.153 57.5136 43.4461 57.2949 39.4874L57.2917 39.4324C57.2194 38.0383 57.5924 36.6584 58.3545 35.507C60.5484 32.1886 60.5484 27.813 58.3553 24.4938C57.594 23.3432 57.2194 21.9642 57.2917 20.5702L57.2949 20.5118C57.5136 16.5531 55.3752 12.8462 51.8444 11.0669L51.8122 11.0503C50.571 10.4349 49.554 9.42276 48.9101 8.16128L48.8916 8.12376C47.1133 4.61362 43.4322 2.48669 39.5195 2.6993L39.4592 2.70264C38.0387 2.78518 36.6278 2.40499 35.426 1.61458H35.4244C32.1058 -0.538193 27.8933 -0.538193 24.5747 1.61458C23.3721 2.40415 21.9612 2.78435 20.5399 2.70181L20.4804 2.69847C16.5669 2.48336 12.8866 4.61279 11.1091 8.12209L11.0955 8.14794C10.4515 9.41526 9.43135 10.4333 8.18608 11.0511L8.15232 11.0678C4.62473 12.8454 2.48631 16.5531 2.70498 20.5118L2.70819 20.5668C2.78055 21.9609 2.40753 23.3407 1.64542 24.4913C-0.548472 27.8105 -0.548472 32.187 1.64542 35.5053C2.40672 36.6559 2.78055 38.0358 2.70739 39.4298ZM4.35542 26.4307C5.53155 24.6548 6.10796 22.5253 5.99541 20.3742L5.99219 20.3159C5.87643 17.6928 7.29614 15.2566 9.58811 14.1419L9.61625 14.1277C11.4966 13.1939 13.0361 11.6564 14.0072 9.74376L14.0233 9.71207C15.2043 7.37921 17.6779 5.96515 20.3051 6.11022L20.363 6.11272C22.4652 6.23529 24.5514 5.67333 26.3297 4.5044C28.575 3.04782 31.4241 3.04782 33.6694 4.5044C35.4477 5.67166 37.5339 6.23445 39.6353 6.11356L39.6932 6.11022C42.3332 5.96682 44.7948 7.37921 45.9726 9.7054L45.9943 9.74793C46.9654 11.6581 48.5033 13.193 50.3812 14.126L50.4086 14.1402C52.7367 15.3141 54.15 17.7379 54.0077 20.3167L54.0045 20.3776C53.8919 22.5287 54.4692 24.6573 55.6453 26.4332C57.0666 28.5834 57.0658 31.4182 55.6437 33.5677C54.4684 35.3444 53.8919 37.4738 54.0045 39.6249L54.0077 39.6825C54.15 42.2613 52.7367 44.6859 50.4078 45.8607L50.3837 45.8723C48.5017 46.8078 46.9606 48.3469 45.9886 50.2629L45.9766 50.2879C44.7948 52.6208 42.3252 54.0357 39.694 53.8898L39.6369 53.8864C37.5347 53.7647 35.4477 54.3275 33.6686 55.4956C31.4241 56.9514 28.575 56.9514 26.3305 55.4956C24.713 54.4326 22.8367 53.8689 20.9217 53.8706C20.736 53.8706 20.5495 53.8756 20.363 53.8864L20.3051 53.8889C17.7125 54.0599 15.2597 52.6525 14.0209 50.2838L14.004 50.2512C13.0345 48.3419 11.4974 46.8078 9.62027 45.8748L9.58972 45.859C7.26077 44.685 5.84749 42.2605 5.99058 39.6825L5.9938 39.6216C6.10554 37.4705 5.52833 35.3411 4.35301 33.566C2.93249 31.4157 2.93329 28.5809 4.35542 26.4323V26.4307Z" fill="#17A2B8"/>
<path d="M19.3767 47.6534C20.1477 48.1528 21.163 47.9086 21.6446 47.109L41.1484 14.704C41.4667 14.1862 41.4933 13.5309 41.2167 12.9881C40.9402 12.4445 40.4032 12.0976 39.8115 12.0785C39.2198 12.0593 38.6635 12.3711 38.3548 12.8956L18.8518 45.3005C18.3702 46.101 18.605 47.154 19.3767 47.6534Z" fill="#17A2B8"/>
<path d="M21.1245 30.0837C25.1336 30.0837 28.3959 26.2259 28.3959 21.4843C28.3959 16.7427 25.1336 12.8857 21.1245 12.8857C17.1154 12.8857 13.8539 16.7427 13.8539 21.4843C13.8539 26.2259 17.1154 30.0837 21.1245 30.0837ZM21.1245 16.3008C23.3184 16.3008 25.1031 18.6262 25.1031 21.4843C25.1031 24.3425 23.3184 26.6687 21.1245 26.6687C18.9314 26.6687 17.1467 24.3416 17.1467 21.4843C17.1467 18.627 18.9314 16.3008 21.1245 16.3008Z" fill="#17A2B8"/>
<path d="M31.6042 38.518C31.6042 43.2596 34.8657 47.1166 38.8749 47.1166C42.884 47.1166 46.1463 43.2588 46.1463 38.518C46.1463 33.7781 42.8848 29.9194 38.8757 29.9194C34.8657 29.9194 31.6042 33.7756 31.6042 38.518ZM42.8535 38.518C42.8535 41.3762 41.0688 43.7015 38.8749 43.7015C36.6818 43.7015 34.8971 41.3762 34.8971 38.518C34.8971 35.6599 36.6818 33.3345 38.8749 33.3345C41.0688 33.3345 42.8535 35.6582 42.8535 38.518Z" fill="#17A2B8"/>
</svg>
