<svg width="24" height="24" viewBox="0 0 24 24" fill="none" xmlns="http://www.w3.org/2000/svg">
<g clip-path="url(#clip0)">
<path fill-rule="evenodd" clip-rule="evenodd" d="M5.46999 1.98561C5.38144 1.8717 5.26966 1.77793 5.14209 1.71054C5.01452 1.64315 4.87407 1.60368 4.73007 1.59474C4.58606 1.5858 4.44181 1.60761 4.30688 1.6587C4.17196 1.7098 4.04944 1.78902 3.94749 1.89111L2.39649 3.44361C1.67199 4.16961 1.40499 5.19711 1.72149 6.09861C3.0351 9.82999 5.17193 13.2177 7.97349 16.0106C10.7664 18.8121 14.1541 20.9489 17.8855 22.2626C18.787 22.5791 19.8145 22.3121 20.5405 21.5876L22.0915 20.0366C22.1936 19.9347 22.2728 19.8121 22.3239 19.6772C22.375 19.5423 22.3968 19.398 22.3879 19.254C22.3789 19.11 22.3394 18.9696 22.2721 18.842C22.2047 18.7144 22.1109 18.6027 21.997 18.5141L18.5365 15.8231C18.4148 15.7287 18.2733 15.6632 18.1225 15.6315C17.9718 15.5998 17.8159 15.6027 17.6665 15.6401L14.3815 16.4606C13.943 16.5702 13.4836 16.5644 13.0481 16.4437C12.6125 16.3231 12.2156 16.0917 11.896 15.7721L8.21199 12.0866C7.89214 11.7672 7.66048 11.3703 7.53956 10.9348C7.41864 10.4992 7.41258 10.0397 7.52199 9.60111L8.34399 6.31611C8.38135 6.1667 8.38429 6.01076 8.35259 5.86005C8.32089 5.70934 8.25537 5.5678 8.16099 5.44611L5.46999 1.98561ZM2.81499 0.760107C3.07748 0.497531 3.39283 0.293802 3.7401 0.162448C4.08736 0.0310947 4.4586 -0.0248783 4.82916 -0.00175388C5.19972 0.0213705 5.56112 0.123063 5.88936 0.296572C6.2176 0.47008 6.50518 0.711434 6.73299 1.00461L9.42399 4.46361C9.91749 5.09811 10.0915 5.92461 9.89649 6.70461L9.07599 9.98961C9.03357 10.1598 9.03586 10.338 9.08264 10.507C9.12942 10.676 9.21911 10.83 9.34299 10.9541L13.0285 14.6396C13.1527 14.7637 13.307 14.8536 13.4763 14.9004C13.6456 14.9472 13.8241 14.9493 13.9945 14.9066L17.278 14.0861C17.6629 13.9899 18.0647 13.9824 18.4529 14.0642C18.8411 14.1461 19.2057 14.3151 19.519 14.5586L22.978 17.2496C24.2215 18.2171 24.3355 20.0546 23.2225 21.1661L21.6715 22.7171C20.5615 23.8271 18.9025 24.3146 17.356 23.7701C13.3978 22.3774 9.8039 20.1114 6.84099 17.1401C3.86992 14.1776 1.6039 10.5843 0.210988 6.62661C-0.332012 5.08161 0.155488 3.42111 1.26549 2.31111L2.81649 0.760107H2.81499Z" fill="#152536"/>
</g>
<defs>
<clipPath id="clip0">
<rect width="24" height="24" fill="white"/>
</clipPath>
</defs>
</svg>
