<svg width="16" height="16" viewBox="0 0 16 16" fill="none" xmlns="http://www.w3.org/2000/svg">
<path fill-rule="evenodd" clip-rule="evenodd" d="M3.64666 1.32366C3.58762 1.24772 3.51311 1.18521 3.42806 1.14028C3.34301 1.09535 3.24938 1.06904 3.15338 1.06308C3.05738 1.05712 2.96121 1.07166 2.87125 1.10572C2.7813 1.13979 2.69963 1.1926 2.63166 1.26066L1.59766 2.29566C1.11466 2.77966 0.936658 3.46466 1.14766 4.06566C2.0234 6.55324 3.44795 8.81175 5.31566 10.6737C7.17758 12.5413 9.43608 13.9659 11.9237 14.8417C12.5247 15.0527 13.2097 14.8747 13.6937 14.3917L14.7277 13.3577C14.7957 13.2897 14.8485 13.208 14.8826 13.1181C14.9167 13.0281 14.9312 12.9319 14.9252 12.8359C14.9193 12.7399 14.893 12.6463 14.848 12.5613C14.8031 12.4762 14.7406 12.4017 14.6647 12.3427L12.3577 10.5487C12.2765 10.4857 12.1822 10.4421 12.0817 10.4209C11.9812 10.3998 11.8773 10.4017 11.7777 10.4267L9.58766 10.9737C9.29534 11.0467 8.98908 11.0428 8.6987 10.9624C8.40832 10.882 8.14372 10.7277 7.93066 10.5147L5.47466 8.05766C5.26143 7.84469 5.10698 7.58014 5.02637 7.28976C4.94576 6.99937 4.94172 6.69306 5.01466 6.40066L5.56266 4.21066C5.58757 4.11105 5.58953 4.00709 5.56839 3.90662C5.54726 3.80615 5.50358 3.71179 5.44066 3.63066L3.64666 1.32366ZM1.87666 0.506656C2.05165 0.331606 2.26189 0.195787 2.4934 0.108218C2.72491 0.0206484 2.9724 -0.0166669 3.21944 -0.00125064C3.46648 0.0141656 3.70741 0.0819608 3.92624 0.197633C4.14507 0.313305 4.33678 0.474208 4.48866 0.669656L6.28266 2.97566C6.61166 3.39866 6.72766 3.94966 6.59766 4.46966L6.05066 6.65966C6.02238 6.77309 6.0239 6.8919 6.05509 7.00457C6.08628 7.11723 6.14607 7.21992 6.22866 7.30266L8.68566 9.75966C8.76849 9.84241 8.87135 9.9023 8.98421 9.93349C9.09707 9.96469 9.21608 9.96612 9.32966 9.93766L11.5187 9.39066C11.7753 9.3265 12.0431 9.32151 12.3019 9.37608C12.5608 9.43065 12.8038 9.54335 13.0127 9.70566L15.3187 11.4997C16.1477 12.1447 16.2237 13.3697 15.4817 14.1107L14.4477 15.1447C13.7077 15.8847 12.6017 16.2097 11.5707 15.8467C8.93184 14.9182 6.53593 13.4075 4.56066 11.4267C2.57995 9.45167 1.06927 7.05612 0.140658 4.41766C-0.221342 3.38766 0.103658 2.28066 0.843658 1.54066L1.87766 0.506656H1.87666Z" fill="#6C757D"/>
</svg>
