<svg width="60" height="60" viewBox="0 0 60 60" fill="none" xmlns="http://www.w3.org/2000/svg">
<path d="M16.3954 18.4758C16.3954 27.2992 23.3455 34.4517 31.9192 34.4517C40.4929 34.4517 47.443 27.2992 47.443 18.4758C47.443 9.6525 40.4929 2.5 31.9192 2.5C23.3497 2.50968 16.4053 9.6568 16.3954 18.4758ZM31.9192 4.70342C39.3105 4.70342 45.302 10.8693 45.302 18.4758C45.302 26.0824 39.3105 32.2483 31.9192 32.2483C24.5279 32.2483 18.5365 26.0824 18.5365 18.4758C18.5448 10.8731 24.5316 4.71202 31.9192 4.70342Z" fill="#28A745"/>
<path d="M52.7199 37.1683L44.3339 41.2459C43.1761 39.0296 40.955 37.6191 38.5108 37.5481L30.7693 37.3292C29.5435 37.2931 28.3407 36.9736 27.2508 36.3942L26.4631 35.9741C22.4297 33.8105 17.6223 33.8158 13.5931 35.9881L13.6422 34.1515C13.6584 33.5431 13.1927 33.0364 12.6015 33.0197L4.11249 32.7792C3.52129 32.7626 3.02941 33.2419 3.0132 33.8503L2.50041 53.0215C2.48421 53.6299 2.94995 54.1367 3.54115 54.1534L12.0302 54.3938H12.0594C12.6397 54.3938 13.1143 53.9188 13.13 53.3222L13.1545 52.405L15.3599 51.1898C16.2255 50.7105 17.2375 50.5965 18.1831 50.8719L31.3526 54.6757C31.3756 54.6827 31.3986 54.6881 31.4221 54.6934C32.374 54.8984 33.3442 55.0012 34.3164 55.0006C36.376 55.0017 38.4115 54.545 40.2833 53.6606C40.3293 53.6391 40.3738 53.6138 40.4161 53.5853L59.5106 40.8747C59.9863 40.5579 60.14 39.9151 59.8614 39.4072C58.4438 36.8187 55.2996 35.8326 52.7199 37.1683ZM4.67023 51.9811L5.12396 35.0122L11.4724 35.1919L11.0187 52.1613L4.67023 51.9811ZM39.3189 51.6928C36.9933 52.773 34.3959 53.071 31.8962 52.5454L18.7623 48.7513C17.2841 48.3215 15.7018 48.4996 14.3495 49.2478L13.2225 49.8692L13.5241 38.5869C17.0954 36.1425 21.6754 35.8912 25.4788 37.9306L26.2665 38.3507C27.6434 39.0823 29.1619 39.4858 30.7107 39.532L38.4528 39.751C40.6273 39.8155 42.4741 41.4089 42.9152 43.6016L31.3835 43.274C30.7923 43.2573 30.3004 43.7371 30.2836 44.345C30.2674 44.9534 30.7337 45.4602 31.3244 45.4769L44.0506 45.8373H44.0804C44.6601 45.8367 45.1342 45.3617 45.1499 44.7657C45.1629 44.2869 45.1284 43.8076 45.0464 43.3364L53.6478 39.1539C53.6561 39.1501 53.6645 39.1458 53.6729 39.1415C54.8929 38.5062 56.368 38.7187 57.3717 39.6746L39.3189 51.6928Z" fill="#28A745"/>
<path d="M33.8288 10.8994H29.0919C28.6035 10.8994 28.2075 11.2637 28.2075 11.7131V17.8715H27.1972C26.7088 17.8715 26.3127 18.2358 26.3127 18.6852C26.3127 19.1345 26.7088 19.4988 27.1972 19.4988H28.2075V21.3576H27.1972C26.7088 21.3576 26.3127 21.7219 26.3127 22.1712C26.3127 22.6206 26.7088 22.9849 27.1972 22.9849H28.2075V24.7858C28.2075 25.2351 28.6035 25.5994 29.0919 25.5994C29.5804 25.5994 29.9764 25.2351 29.9764 24.7858V22.9849H33.8288C34.3172 22.9849 34.7133 22.6206 34.7133 22.1712C34.7133 21.7219 34.3172 21.3576 33.8288 21.3576H29.9764V19.4988H33.8288C36.406 19.4988 38.5027 17.57 38.5027 15.1991C38.5027 12.7696 36.3515 10.8994 33.8288 10.8994ZM33.8288 17.8715H29.9764V12.5267H33.8288C35.4209 12.5267 36.7338 13.7081 36.7338 15.1991C36.7337 16.6727 35.4306 17.8715 33.8288 17.8715Z" fill="#28A745"/>
</svg>
