<svg width="51" height="51" viewBox="0 0 51 51" fill="none" xmlns="http://www.w3.org/2000/svg">
<path d="M0 25.5C0 39.5835 11.4165 51 25.5 51C39.5835 51 51 39.5835 51 25.5C51 11.4165 39.5835 0 25.5 0C11.4234 0.0154555 0.0163143 11.4234 0 25.5ZM25.5 3.517C37.6412 3.517 47.483 13.3588 47.483 25.5C47.483 37.6412 37.6412 47.483 25.5 47.483C13.3588 47.483 3.517 37.6412 3.517 25.5C3.53074 13.3648 13.3648 3.53074 25.5 3.517Z" fill="#FFC107"/>
<path d="M29.0913 13.9092H20.984C20.1479 13.9092 19.4702 14.5411 19.4702 15.3206V26.0036H17.7411C16.9051 26.0036 16.2273 26.6356 16.2273 27.4151C16.2273 28.1945 16.9051 28.8265 17.7411 28.8265H19.4702V32.0509H17.7411C16.9051 32.0509 16.2273 32.6828 16.2273 33.4623C16.2273 34.2418 16.9051 34.8738 17.7411 34.8738H19.4702V37.9977C19.4702 38.7772 20.1479 39.4092 20.984 39.4092C21.82 39.4092 22.4978 38.7772 22.4978 37.9977V34.8738H29.0913C29.9273 34.8738 30.6051 34.2418 30.6051 33.4623C30.6051 32.6828 29.9273 32.0509 29.0913 32.0509H22.4978V28.8265H29.0913C33.5023 28.8265 37.0909 25.4805 37.0909 21.3678C37.0908 17.1534 33.409 13.9092 29.0913 13.9092ZM29.0913 26.0036H22.4978V16.7321H29.0913C31.8163 16.7321 34.0633 18.7815 34.0633 21.3679C34.0632 23.9241 31.8329 26.0036 29.0913 26.0036Z" fill="#FFC107"/>
</svg>
