<svg width="60" height="60" viewBox="0 0 60 60" fill="none" xmlns="http://www.w3.org/2000/svg">
<path d="M59.9164 33.3139C59.7013 31.7402 58.1004 30.4813 55.1016 29.5614C52.6762 28.823 49.6057 28.3751 46.2605 28.3025V15.3866C46.2605 15.1203 46.1768 14.8661 46.0096 14.6604C45.6153 13.2562 44.0143 12.1183 41.2425 11.271C38.5544 10.4479 35.0418 10 31.3501 10C27.6702 10 24.1935 10.4479 21.5651 11.271C19.4026 11.9489 16.81 13.2078 16.81 15.3745C16.81 15.5077 16.822 15.6408 16.8459 15.774L16.9773 21.2938C9.22342 19.7807 1.73238 24.9494 0.250896 32.8176C0.083632 33.7012 0 34.6091 0 35.5169C0 43.5061 6.41577 50.0064 14.3011 50.0064C17.5866 50.0064 20.7646 48.8565 23.3214 46.7623C25.5675 47.2949 28.1959 47.5854 30.9797 47.6097C31.589 50.9627 38.7575 52.5 45.448 52.5C49.1278 52.5 52.5926 52.04 55.2449 51.2048C57.4193 50.5269 60 49.2559 60 47.0892V33.786C60 33.6286 59.9761 33.4591 59.9164 33.3139ZM22.282 13.583C24.6953 12.8325 27.9211 12.4089 31.362 12.4089C34.779 12.4089 38.1243 12.8325 40.5615 13.583C43.1541 14.3819 43.7156 15.2051 43.7156 15.3745C43.7156 15.544 43.1541 16.3792 40.5496 17.166C38.1243 17.9044 34.779 18.3402 31.362 18.3402C28.0645 18.3402 24.9343 17.9529 22.5567 17.2508C19.9881 16.5003 19.2712 15.6651 19.2115 15.3987C19.2115 15.3745 19.2115 15.3624 19.1995 15.3624C19.2115 15.193 19.7611 14.3698 22.282 13.583ZM43.871 18.4007V21.4996C43.7634 21.669 43.7037 21.8748 43.7156 22.0806C43.7156 22.238 43.1541 23.0732 40.5496 23.8721C38.1243 24.6105 34.767 25.0463 31.3501 25.0463C28.399 25.0463 25.5078 24.7316 23.2139 24.1384C23.178 24.1263 23.1541 24.1263 23.1183 24.1142C21.9833 23.2064 20.7288 22.4922 19.3787 21.9717L19.2951 18.5581C20.1195 18.9818 20.9797 19.3207 21.8757 19.5628C24.4683 20.3254 27.8256 20.737 31.3501 20.737C35.0418 20.737 38.5544 20.2891 41.2306 19.466C42.1505 19.2118 43.0346 18.8486 43.871 18.4007ZM22.3178 44.4382C17.4552 48.9291 9.91637 48.5659 5.49582 43.6393C1.07527 38.7126 1.42174 31.0745 6.28435 26.5957C8.48268 24.5742 11.3381 23.4484 14.3011 23.4484C15.4958 23.4484 16.6906 23.63 17.8375 23.9811C21.9713 25.3005 25.0896 28.7746 25.9857 33.0718C26.141 33.8707 26.2246 34.6938 26.2246 35.5048C26.2246 38.9184 24.8029 42.1625 22.3178 44.4382ZM25.3524 44.7045C26.3202 43.5061 27.0968 42.1625 27.6464 40.722C28.6619 40.8068 29.7372 40.8673 30.8363 40.8794V41.0973L30.8961 45.2008C29.0442 45.1766 27.1924 45.0071 25.3524 44.7045ZM28.5305 34.0765C29.2354 34.1249 29.9642 34.1491 30.7049 34.1612C30.7049 34.1854 30.7168 34.2217 30.7168 34.2459L30.7885 38.4463C29.9403 38.4342 29.1159 38.3979 28.3154 38.3374C28.4946 37.4053 28.5902 36.449 28.5902 35.5048C28.6021 35.0328 28.5783 34.5607 28.5305 34.0765ZM31.4695 31.7524C31.4337 31.7524 31.3978 31.7524 31.362 31.7524C30.2151 31.7524 29.1039 31.7039 28.0765 31.6313C27.6225 30.0093 26.9056 28.4841 25.9379 27.1283C27.73 27.3583 29.534 27.4794 31.3501 27.4794C35.0418 27.4794 38.5544 27.0315 41.2425 26.2083C42.1625 25.9178 43.0346 25.5668 43.871 25.1189V28.3267C38.7336 28.4719 33.4289 29.5614 31.4695 31.7524ZM33.0705 33.6165C33.19 33.2776 34.0621 32.4907 36.5113 31.7887C38.8411 31.1229 41.8757 30.7598 45.0657 30.7598H45.221C48.638 30.7598 51.9833 31.1592 54.4205 31.9097C56.9415 32.6844 57.5388 33.4591 57.5747 33.6649V33.677C57.5627 33.8586 56.9654 34.6938 54.313 35.4927C51.8638 36.2311 48.638 36.6306 45.221 36.6306C41.9952 36.6306 38.9128 36.2553 36.5472 35.5896C34.2652 34.9359 33.3453 34.1975 33.1183 33.8223C33.1063 33.7496 33.0944 33.677 33.0705 33.6165ZM57.6105 47.0892C57.6105 47.2586 57.0729 48.0938 54.54 48.8928C52.1147 49.6554 48.8889 50.079 45.448 50.079C41.9952 50.079 38.7694 49.6675 36.3799 48.9291C33.8471 48.1423 33.3333 47.3312 33.3333 47.1497C33.3333 47.1376 33.3333 47.1376 33.3333 47.1255L33.2736 43.6272C36.1171 45.0919 40.8602 45.7576 45.2091 45.7576C48.9008 45.7576 52.3895 45.3097 55.0657 44.4866C55.9498 44.2203 56.7981 43.8572 57.6105 43.4214V47.0892ZM57.503 40.3831C57.503 40.5525 56.9534 41.3757 54.3728 42.1746C51.9235 42.9251 48.6738 43.3367 45.2091 43.3367C38.6499 43.3367 34.2055 41.8478 33.2258 40.6736L33.2019 39.6326L33.1541 36.8606C34.0263 37.3085 34.9343 37.6595 35.8781 37.9137C38.4468 38.64 41.7563 39.0516 45.1971 39.0516C48.8291 39.0516 52.2939 38.6158 54.9582 37.8169C55.8781 37.5506 56.7622 37.1995 57.5986 36.7516V39.8626H57.6105C57.6105 40.0199 57.503 40.2015 57.503 40.3831Z" fill="#FFC107"/>
<path d="M15.6004 29.3174H11.8504C11.4637 29.3174 11.1502 29.6046 11.1502 29.9589V34.8149H10.3505C9.96377 34.8149 9.65027 35.1021 9.65027 35.4564C9.65027 35.8107 9.96377 36.098 10.3505 36.098H11.1502V37.5636H10.3505C9.96377 37.5636 9.65027 37.8509 9.65027 38.2052C9.65027 38.5595 9.96377 38.8467 10.3505 38.8467H11.1502V40.2667C11.1502 40.621 11.4637 40.9083 11.8504 40.9083C12.2371 40.9083 12.5506 40.621 12.5506 40.2667V38.8467H15.6004C15.9871 38.8467 16.3006 38.5595 16.3006 38.2052C16.3006 37.8509 15.9871 37.5636 15.6004 37.5636H12.5506V36.098H15.6004C17.6407 36.098 19.3006 34.5771 19.3006 32.7077C19.3006 30.792 17.5975 29.3174 15.6004 29.3174ZM15.6004 34.8149H12.5506V30.6005H15.6004C16.8609 30.6005 17.9002 31.5321 17.9002 32.7077C17.9002 33.8696 16.8685 34.8149 15.6004 34.8149Z" fill="#FFC107"/>
</svg>
